<svg version="1.1" id="Layer_1" xmlns="http://www.w3.org/2000/svg" xmlns:xlink="http://www.w3.org/1999/xlink" x="0px" y="0px"
	fill="none" width="100%" viewBox="0 0 500 500" xml:space="preserve">
<path opacity="1.000000" stroke="none" 
	d="
M315.000000,501.000000 
	C210.000031,501.000000 105.500053,501.000000 1.000056,501.000000 
	C1.000037,334.333405 1.000037,167.666794 1.000019,1.000146 
	C167.666565,1.000097 334.333130,1.000097 500.999756,1.000049 
	C500.999847,167.666519 500.999847,334.333038 500.999939,500.999786 
	C439.166656,501.000000 377.333344,501.000000 315.000000,501.000000 
M251.480865,223.111694 
	C251.376129,223.400436 251.271393,223.689194 250.790909,224.720032 
	C250.081116,229.710709 249.371628,234.701447 248.661484,239.692062 
	C247.441376,248.266571 246.182373,256.835754 245.010880,265.416870 
	C243.730576,274.795044 242.531082,284.184296 241.237106,294.019043 
	C254.348541,294.019043 267.445282,294.019043 280.844330,294.019043 
	C280.844330,297.410217 281.140472,300.394287 280.789825,303.300293 
	C279.654236,312.711823 278.072296,322.073090 277.099579,331.498871 
	C276.694122,335.427643 275.315613,337.578644 271.533600,339.089874 
	C257.444458,344.719513 242.755341,346.187042 227.931046,344.807831 
	C218.113251,343.894379 209.180511,340.350739 202.755737,331.630615 
	C195.195786,321.369781 192.782761,309.708160 192.107956,297.614899 
	C190.880905,275.624817 193.891342,253.899887 196.846313,232.141449 
	C199.486832,212.698486 202.832581,193.499908 210.095642,175.218536 
	C214.426529,164.317520 220.583252,154.442062 230.253036,147.401825 
	C241.517365,139.200653 254.694794,137.827820 267.872101,139.362595 
	C273.812317,140.054459 280.032471,143.168396 284.948608,146.783813 
	C294.070984,153.492554 295.390198,164.257523 295.844330,174.599106 
	C296.242401,183.664139 295.304993,192.787811 294.401642,202.143082 
	C294.601349,202.706497 294.801025,203.269928 295.928741,203.973282 
	C322.623199,203.926636 349.317657,203.879990 376.519135,203.888306 
	C376.623871,203.599564 376.728607,203.310806 377.213470,202.274673 
	C378.475555,191.565872 380.236725,180.886505 380.870819,170.140640 
	C381.628174,157.305344 380.293152,144.539124 377.012665,132.028275 
	C372.082397,113.225891 362.061920,97.871429 345.833221,87.024590 
	C327.276428,74.621704 306.132935,69.411888 284.325684,68.257011 
	C262.462097,67.099152 240.476974,67.099136 218.924652,72.917542 
	C198.331253,78.477081 180.064270,87.933632 164.704849,102.806129 
	C151.580887,115.514046 142.333130,130.742645 134.806442,147.311539 
	C126.404671,165.806793 120.745903,185.059875 117.065575,204.925491 
	C114.984734,216.157455 113.421173,227.497589 111.996727,238.835754 
	C110.138245,253.628723 107.940712,268.431335 107.170799,283.296204 
	C106.095856,304.050903 107.965317,324.610718 113.915085,344.748138 
	C121.367264,369.970490 135.803375,389.460205 159.101456,401.992310 
	C178.685974,412.526886 200.058197,416.056061 221.914780,416.878693 
	C231.984329,417.257660 242.152512,416.845337 252.186676,415.871643 
	C264.694489,414.657867 277.352692,413.488739 289.512543,410.523224 
	C311.382019,405.189728 331.191498,395.085114 349.220673,381.449890 
	C353.173553,378.460388 354.595123,374.906006 354.985779,370.447662 
	C355.087341,369.288879 354.934174,368.102509 355.088867,366.954529 
	C356.703949,354.969116 358.396332,342.994080 359.988129,331.005646 
	C361.108612,322.567047 362.049316,314.104523 363.175812,305.666779 
	C364.386444,296.598938 365.740021,287.550293 366.994843,278.488251 
	C368.228210,269.581085 369.486725,260.676483 370.604065,251.754440 
	C371.761871,242.509109 372.763428,233.244202 373.888275,223.480820 
	C373.599518,223.376099 373.310760,223.271378 372.091095,223.026733 
	C332.056702,223.073380 292.022278,223.120026 251.480865,223.111694 
z"/>
<path fill="#00E091" opacity="1.000000" stroke="none" 
	d="
M376.012115,203.833344 
	C349.317657,203.879990 322.623199,203.926636 295.460754,203.578613 
	C294.981018,202.751160 294.969238,202.318375 294.957489,201.885590 
	C295.304993,192.787811 296.242401,183.664139 295.844330,174.599106 
	C295.390198,164.257523 294.070984,153.492554 284.948608,146.783813 
	C280.032471,143.168396 273.812317,140.054459 267.872101,139.362595 
	C254.694794,137.827820 241.517365,139.200653 230.253036,147.401825 
	C220.583252,154.442062 214.426529,164.317520 210.095642,175.218536 
	C202.832581,193.499908 199.486832,212.698486 196.846313,232.141449 
	C193.891342,253.899887 190.880905,275.624817 192.107956,297.614899 
	C192.782761,309.708160 195.195786,321.369781 202.755737,331.630615 
	C209.180511,340.350739 218.113251,343.894379 227.931046,344.807831 
	C242.755341,346.187042 257.444458,344.719513 271.533600,339.089874 
	C275.315613,337.578644 276.694122,335.427643 277.099579,331.498871 
	C278.072296,322.073090 279.654236,312.711823 280.789825,303.300293 
	C281.140472,300.394287 280.844330,297.410217 280.844330,294.019043 
	C267.445282,294.019043 254.348541,294.019043 241.237106,294.019043 
	C242.531082,284.184296 243.730576,274.795044 245.010880,265.416870 
	C246.182373,256.835754 247.441376,248.266571 248.661484,239.692062 
	C249.371628,234.701447 250.081116,229.710709 251.126297,224.224823 
	C251.652008,223.555939 251.827408,223.368286 251.987869,223.166656 
	C292.022278,223.120026 332.056702,223.073380 372.680725,223.244202 
	C373.444061,223.652023 373.631714,223.827408 373.833344,223.987854 
	C372.763428,233.244202 371.761871,242.509109 370.604065,251.754440 
	C369.486725,260.676483 368.228210,269.581085 366.994843,278.488251 
	C365.740021,287.550293 364.386444,296.598938 363.175812,305.666779 
	C362.049316,314.104523 361.108612,322.567047 359.988129,331.005646 
	C358.396332,342.994080 356.703949,354.969116 355.088867,366.954529 
	C354.934174,368.102509 355.087341,369.288879 354.985779,370.447662 
	C354.595123,374.906006 353.173553,378.460388 349.220673,381.449890 
	C331.191498,395.085114 311.382019,405.189728 289.512543,410.523224 
	C277.352692,413.488739 264.694489,414.657867 252.186676,415.871643 
	C242.152512,416.845337 231.984329,417.257660 221.914780,416.878693 
	C200.058197,416.056061 178.685974,412.526886 159.101456,401.992310 
	C135.803375,389.460205 121.367264,369.970490 113.915085,344.748138 
	C107.965317,324.610718 106.095856,304.050903 107.170799,283.296204 
	C107.940712,268.431335 110.138245,253.628723 111.996727,238.835754 
	C113.421173,227.497589 114.984734,216.157455 117.065575,204.925491 
	C120.745903,185.059875 126.404671,165.806793 134.806442,147.311539 
	C142.333130,130.742645 151.580887,115.514046 164.704849,102.806129 
	C180.064270,87.933632 198.331253,78.477081 218.924652,72.917542 
	C240.476974,67.099136 262.462097,67.099152 284.325684,68.257011 
	C306.132935,69.411888 327.276428,74.621704 345.833221,87.024590 
	C362.061920,97.871429 372.082397,113.225891 377.012665,132.028275 
	C380.293152,144.539124 381.628174,157.305344 380.870819,170.140640 
	C380.236725,180.886505 378.475555,191.565872 376.875916,202.772522 
	C376.348022,203.444077 376.172607,203.631729 376.012115,203.833344 
z"/>
<path fill="#00E091" opacity="1.000000" stroke="none" 
	d="
M294.679565,202.014343 
	C294.969238,202.318375 294.981018,202.751160 294.996765,203.508636 
	C294.801025,203.269928 294.601349,202.706497 294.679565,202.014343 
z"/>
<path fill="#00E091" opacity="1.000000" stroke="none" 
	d="
M376.265625,203.860825 
	C376.172607,203.631729 376.348022,203.444077 376.685852,203.146225 
	C376.728607,203.310806 376.623871,203.599564 376.265625,203.860825 
z"/>
<path fill="#00E091" opacity="1.000000" stroke="none" 
	d="
M251.734375,223.139175 
	C251.827408,223.368286 251.652008,223.555939 251.314178,223.853790 
	C251.271393,223.689194 251.376129,223.400436 251.734375,223.139175 
z"/>
<path fill="#00E091" opacity="1.000000" stroke="none" 
	d="
M373.860809,223.734344 
	C373.631714,223.827408 373.444061,223.652023 373.146179,223.314178 
	C373.310760,223.271378 373.599518,223.376099 373.860809,223.734344 
z"/>
</svg>